<svg width="42" height="42" viewBox="0 0 42 42" fill="none" xmlns="http://www.w3.org/2000/svg">
<path d="M18.9165 31.4166H23.0832V23.0833H31.4165V18.9166H23.0832V10.5833H18.9165V18.9166H10.5832V23.0833H18.9165V31.4166ZM20.9998 41.8333C18.1179 41.8333 15.4096 41.2861 12.8748 40.1916C10.3401 39.0986 8.13525 37.6145 6.26025 35.7395C4.38525 33.8645 2.90123 31.6597 1.80817 29.125C0.713726 26.5902 0.166504 23.8819 0.166504 21C0.166504 18.118 0.713726 15.4097 1.80817 12.875C2.90123 10.3402 4.38525 8.13538 6.26025 6.26038C8.13525 4.38538 10.3401 2.90065 12.8748 1.80621C15.4096 0.713154 18.1179 0.166626 20.9998 0.166626C23.8818 0.166626 26.5901 0.713154 29.1248 1.80621C31.6596 2.90065 33.8644 4.38538 35.7394 6.26038C37.6144 8.13538 39.0984 10.3402 40.1915 12.875C41.2859 15.4097 41.8332 18.118 41.8332 21C41.8332 23.8819 41.2859 26.5902 40.1915 29.125C39.0984 31.6597 37.6144 33.8645 35.7394 35.7395C33.8644 37.6145 31.6596 39.0986 29.1248 40.1916C26.5901 41.2861 23.8818 41.8333 20.9998 41.8333ZM20.9998 37.6666C25.6526 37.6666 29.5936 36.052 32.8228 32.8229C36.0519 29.5937 37.6665 25.6527 37.6665 21C37.6665 16.3472 36.0519 12.4062 32.8228 9.17704C29.5936 5.94788 25.6526 4.33329 20.9998 4.33329C16.3471 4.33329 12.4061 5.94788 9.17692 9.17704C5.94775 12.4062 4.33317 16.3472 4.33317 21C4.33317 25.6527 5.94775 29.5937 9.17692 32.8229C12.4061 36.052 16.3471 37.6666 20.9998 37.6666Z" fill="#808080"/>
</svg>
