<svg width="30" height="30" viewBox="0 0 30 30" fill="none" xmlns="http://www.w3.org/2000/svg">
<path d="M8.75 22.5C7.375 22.5 6.2625 23.625 6.2625 25C6.2625 26.375 7.375 27.5 8.75 27.5C10.125 27.5 11.25 26.375 11.25 25C11.25 23.625 10.125 22.5 8.75 22.5ZM1.25 3.75C1.25 4.4375 1.8125 5 2.5 5H3.75L8.25 14.4875L6.5625 17.5375C5.65 19.2125 6.85 21.25 8.75 21.25H22.5C23.1875 21.25 23.75 20.6875 23.75 20C23.75 19.3125 23.1875 18.75 22.5 18.75H8.75L10.125 16.25H19.4375C20.375 16.25 21.2 15.7375 21.625 14.9625L26.1 6.85C26.2053 6.66053 26.2594 6.44684 26.2568 6.23007C26.2542 6.0133 26.195 5.80097 26.0852 5.61408C25.9753 5.42719 25.8186 5.27223 25.6304 5.16452C25.4423 5.05682 25.2293 5.00011 25.0125 5H6.5125L5.675 3.2125C5.57454 2.99913 5.41537 2.8188 5.21613 2.69262C5.0169 2.56643 4.78583 2.49962 4.55 2.5H2.5C1.8125 2.5 1.25 3.0625 1.25 3.75ZM21.25 22.5C19.875 22.5 18.7625 23.625 18.7625 25C18.7625 26.375 19.875 27.5 21.25 27.5C22.625 27.5 23.75 26.375 23.75 25C23.75 23.625 22.625 22.5 21.25 22.5Z" fill="white"/>
</svg>
