<svg width="64" height="64" viewBox="0 0 64 64" fill="none" xmlns="http://www.w3.org/2000/svg">
<path d="M56.9487 0.00679236C56.9487 0.00679236 7.15545 -0.00849045 7.16974 0.00679236C2.58009 0.00679236 0 2.37563 0 7.21417V57.1034C0 61.6301 2.31983 64 6.9054 64H57.0915C61.6771 64 64 61.7483 64 57.1034V7.21417C64.001 2.4928 61.6781 0.00679236 56.9487 0.00679236ZM30.7579 23.0889C30.7579 24.6539 29.3301 26.3299 27.4767 26.3299V52.7539C27.4767 56.5053 22.3553 56.5053 22.3553 52.7539V26.3299C20.5519 26.3299 18.9812 24.9432 18.9812 22.8658V8.3237C18.9812 7.05828 20.8132 7.00938 20.8132 8.37362V19.1225H22.3471V8.27378C22.3471 7.11126 24.1118 7.03689 24.1118 8.3237V19.1225H25.6968V8.28906C25.6968 7.07356 27.4093 7.02466 27.4093 8.33694V19.1225H28.9688V8.28906C28.9688 7.08681 30.7579 7.03892 30.7579 8.33694V23.0889ZM44.4197 52.7417C44.4197 56.4106 39.2881 56.3555 39.2881 52.7417V36.4583H36.556V11.7032C36.556 5.9406 44.4207 5.9406 44.4207 11.7032V52.7417H44.4197Z" fill="#35B8BE"/>
</svg>
