<svg width="55" height="65" viewBox="0 0 55 65" fill="none" xmlns="http://www.w3.org/2000/svg">
<g clip-path="url(#clip0_402_9)">
<path d="M9.27481 41.8239C5.06755 37.0224 2.95772 31.6686 2.94531 25.7626C2.94531 19.507 5.36542 14.1758 10.2056 9.76894C14.9711 5.47461 20.7297 3.27672 27.4814 3.17529C34.2203 3.24291 39.9913 5.4408 44.7943 9.76894C49.6346 14.1647 52.0547 19.4959 52.0547 25.7626C52.0547 31.6799 49.9324 37.0337 45.6879 41.8239L36.231 52.1032C36.231 52.1032 34.7789 52.5089 33.997 51.7651C33.662 51.4608 20.4818 36.1095 20.4818 36.1095" stroke="#35B8BE" stroke-width="6.25" stroke-miterlimit="3" stroke-linecap="square"/>
<path d="M18.9179 34.3848C18.2448 33.7508 17.736 32.9883 17.4286 32.1531C17.1222 31.3153 17.0205 30.4269 17.1308 29.5498C17.2425 27.69 18.0615 26.1687 19.6254 24.9511C21.1519 23.7677 22.9017 23.2943 24.8751 23.4634C26.0665 23.531 27.1091 23.8015 28.0398 24.3764C28.7153 24.7184 29.32 25.1646 29.8269 25.6951L37.7204 33.9794" stroke="#35B8BE" stroke-width="6.25" stroke-miterlimit="3" stroke-linecap="round" stroke-linejoin="round"/>
<path d="M35.0395 53.4555L18.9179 34.3848M27.5183 60.7253L9.27481 41.8237" stroke="#35B8BE" stroke-width="6.25" stroke-miterlimit="3" stroke-linecap="round"/>
</g>
<defs>
<clipPath id="clip0_402_9">
<rect width="55" height="64" fill="white" transform="translate(0 0.5)"/>
</clipPath>
</defs>
</svg>
