<svg width="42" height="42" viewBox="0 0 42 42" fill="none" xmlns="http://www.w3.org/2000/svg">
<path d="M18.917 31.4166H23.0837V23.0833H31.417V18.9166H23.0837V10.5833H18.917V18.9166H10.5837V23.0833H18.917V31.4166ZM21.0003 41.8333C18.1184 41.8333 15.41 41.2861 12.8753 40.1916C10.3406 39.0986 8.13574 37.6145 6.26074 35.7395C4.38574 33.8645 2.90171 31.6597 1.80866 29.125C0.714215 26.5902 0.166992 23.8819 0.166992 21C0.166992 18.118 0.714215 15.4097 1.80866 12.875C2.90171 10.3402 4.38574 8.13538 6.26074 6.26038C8.13574 4.38538 10.3406 2.90065 12.8753 1.80621C15.41 0.713154 18.1184 0.166626 21.0003 0.166626C23.8823 0.166626 26.5906 0.713154 29.1253 1.80621C31.66 2.90065 33.8649 4.38538 35.7399 6.26038C37.6149 8.13538 39.0989 10.3402 40.192 12.875C41.2864 15.4097 41.8337 18.118 41.8337 21C41.8337 23.8819 41.2864 26.5902 40.192 29.125C39.0989 31.6597 37.6149 33.8645 35.7399 35.7395C33.8649 37.6145 31.66 39.0986 29.1253 40.1916C26.5906 41.2861 23.8823 41.8333 21.0003 41.8333ZM21.0003 37.6666C25.6531 37.6666 29.5941 36.052 32.8232 32.8229C36.0524 29.5937 37.667 25.6527 37.667 21C37.667 16.3472 36.0524 12.4062 32.8232 9.17704C29.5941 5.94788 25.6531 4.33329 21.0003 4.33329C16.3475 4.33329 12.4066 5.94788 9.17741 9.17704C5.94824 12.4062 4.33366 16.3472 4.33366 21C4.33366 25.6527 5.94824 29.5937 9.17741 32.8229C12.4066 36.052 16.3475 37.6666 21.0003 37.6666Z" fill="#808080"/>
</svg>
