<svg width="34" height="34" viewBox="0 0 34 34" fill="none" xmlns="http://www.w3.org/2000/svg">
<path d="M9.99992 0.333374H23.9999C29.3333 0.333374 33.6666 4.66671 33.6666 10V24C33.6666 26.5638 32.6481 29.0226 30.8353 30.8354C29.0224 32.6483 26.5637 33.6667 23.9999 33.6667H9.99992C4.66659 33.6667 0.333252 29.3334 0.333252 24V10C0.333252 7.43628 1.3517 4.97753 3.16455 3.16468C4.9774 1.35182 7.43616 0.333374 9.99992 0.333374ZM9.66658 3.66671C8.07529 3.66671 6.54916 4.29885 5.42394 5.42407C4.29873 6.54928 3.66659 8.07541 3.66659 9.66671V24.3334C3.66659 27.65 6.34992 30.3334 9.66658 30.3334H24.3333C25.9245 30.3334 27.4507 29.7012 28.5759 28.576C29.7011 27.4508 30.3333 25.9247 30.3333 24.3334V9.66671C30.3333 6.35004 27.6499 3.66671 24.3333 3.66671H9.66658ZM25.7499 6.16671C26.3025 6.16671 26.8324 6.3862 27.2231 6.7769C27.6138 7.1676 27.8333 7.69751 27.8333 8.25004C27.8333 8.80258 27.6138 9.33248 27.2231 9.72318C26.8324 10.1139 26.3025 10.3334 25.7499 10.3334C25.1974 10.3334 24.6675 10.1139 24.2768 9.72318C23.8861 9.33248 23.6666 8.80258 23.6666 8.25004C23.6666 7.69751 23.8861 7.1676 24.2768 6.7769C24.6675 6.3862 25.1974 6.16671 25.7499 6.16671ZM16.9999 8.66671C19.2101 8.66671 21.3297 9.54468 22.8925 11.1075C24.4553 12.6703 25.3333 14.7899 25.3333 17C25.3333 19.2102 24.4553 21.3298 22.8925 22.8926C21.3297 24.4554 19.2101 25.3334 16.9999 25.3334C14.7898 25.3334 12.6702 24.4554 11.1074 22.8926C9.54456 21.3298 8.66658 19.2102 8.66658 17C8.66658 14.7899 9.54456 12.6703 11.1074 11.1075C12.6702 9.54468 14.7898 8.66671 16.9999 8.66671ZM16.9999 12C15.6738 12 14.4021 12.5268 13.4644 13.4645C12.5267 14.4022 11.9999 15.674 11.9999 17C11.9999 18.3261 12.5267 19.5979 13.4644 20.5356C14.4021 21.4733 15.6738 22 16.9999 22C18.326 22 19.5978 21.4733 20.5355 20.5356C21.4731 19.5979 21.9999 18.3261 21.9999 17C21.9999 15.674 21.4731 14.4022 20.5355 13.4645C19.5978 12.5268 18.326 12 16.9999 12Z" fill="#808080"/>
</svg>
