<svg width="34" height="24" viewBox="0 0 34 24" fill="none" xmlns="http://www.w3.org/2000/svg">
<path d="M13.6666 17L22.3166 12L13.6666 7.00004V17ZM32.9333 3.95004C33.1499 4.73337 33.2999 5.78337 33.3999 7.11671C33.5166 8.45004 33.5666 9.60004 33.5666 10.6L33.6666 12C33.6666 15.65 33.3999 18.3334 32.9333 20.05C32.5166 21.55 31.5499 22.5167 30.0499 22.9334C29.2666 23.15 27.8333 23.3 25.6333 23.4C23.4666 23.5167 21.4833 23.5667 19.6499 23.5667L16.9999 23.6667C10.0166 23.6667 5.66659 23.4 3.94992 22.9334C2.44992 22.5167 1.48325 21.55 1.06659 20.05C0.849919 19.2667 0.699919 18.2167 0.599919 16.8834C0.483252 15.55 0.433252 14.4 0.433252 13.4L0.333252 12C0.333252 8.35004 0.599919 5.66671 1.06659 3.95004C1.48325 2.45004 2.44992 1.48337 3.94992 1.06671C4.73325 0.850041 6.16659 0.70004 8.36659 0.60004C10.5333 0.483374 12.5166 0.433374 14.3499 0.433374L16.9999 0.333374C23.9833 0.333374 28.3333 0.600041 30.0499 1.06671C31.5499 1.48337 32.5166 2.45004 32.9333 3.95004Z" fill="#808080"/>
</svg>
